<svg xmlns="http://www.w3.org/2000/svg" height="464px" width="316px" version="1.1"><polyline points="182.0,170.0,182.0,178.0,187.0,180.0,195.0,181.0,203.0,181.0,211.0,185.0,219.0,189.0" stroke="black" stroke-width="1" fill="none" />
<polyline points="208.0,195.0,210.0,191.0,219.0,190.0,223.0,198.0,223.0,206.0,223.0,214.0,224.0,222.0,223.0,230.0,223.0,238.0,223.0,246.0,223.0,254.0,223.0,262.0,223.0,270.0,223.0,278.0,223.0,286.0,223.0,294.0,223.0,302.0,223.0,310.0,223.0,318.0,223.0,326.0,223.0,334.0,223.0,342.0,223.0,350.0,223.0,358.0,223.0,366.0,223.0,374.0,223.0,382.0,223.0,390.0,223.0,398.0,223.0,406.0,224.0,414.0,223.0,422.0,223.0,430.0,223.0,438.0,215.0,446.0,218.0,444.0,210.0,450.0,202.0,452.0,194.0,452.0,186.0,453.0,181.0,461.0,183.0,453.0" stroke="black" stroke-width="1" fill="none" />
<polyline points="182.0,462.0,190.0,463.0,198.0,463.0,206.0,463.0,214.0,463.0,222.0,464.0,230.0,463.0,238.0,463.0,246.0,463.0,254.0,463.0,262.0,463.0,270.0,463.0,278.0,463.0,286.0,463.0,294.0,463.0,302.0,463.0,310.0,463.0" stroke="black" stroke-width="1" fill="none" />
<polyline points="302.0,446.0,295.0,435.0,287.0,426.0" stroke="black" stroke-width="1" fill="none" />
<polyline points="278.0,444.0,286.0,447.0,294.0,443.0,297.0,438.0,290.0,446.0" stroke="black" stroke-width="1" fill="none" />
<polyline points="314.0,459.0,313.0,453.0,305.0,452.0,297.0,452.0,289.0,451.0,278.0,445.0,277.0,437.0,274.0,429.0,272.0,421.0,271.0,413.0,271.0,405.0,271.0,397.0,271.0,389.0,272.0,381.0,272.0,373.0,272.0,365.0,272.0,357.0,272.0,349.0,272.0,341.0,272.0,333.0,272.0,325.0,272.0,317.0,272.0,309.0,272.0,301.0,272.0,293.0,272.0,285.0,272.0,277.0,272.0,269.0,272.0,261.0,272.0,253.0,272.0,245.0,272.0,237.0,272.0,229.0,272.0,221.0,272.0,213.0,273.0,205.0,277.0,197.0,278.0,189.0,289.0,181.0,277.0,191.0" stroke="black" stroke-width="1" fill="none" />
<polyline points="288.0,193.0,290.0,181.0,298.0,181.0,306.0,181.0" stroke="black" stroke-width="1" fill="none" />
<polyline points="299.0,190.0,303.0,201.0,306.0,197.0,314.0,198.0" stroke="black" stroke-width="1" fill="none" />
<polyline points="278.0,212.0,282.0,210.0,278.0,208.0,272.0,206.0" stroke="black" stroke-width="1" fill="none" />
<polyline points="314.0,173.0,309.0,170.0,301.0,170.0,293.0,170.0,285.0,170.0,277.0,170.0,269.0,170.0,261.0,170.0,253.0,170.0,245.0,170.0,237.0,170.0,229.0,170.0,221.0,170.0,213.0,170.0,205.0,170.0,197.0,170.0,189.0,170.0,181.0,171.0" stroke="black" stroke-width="1" fill="none" />
<polyline points="181.0,176.0,315.5,176.0,313.0,175.0,309.0,179.0,313.5,177.5,308.0,172.0,308.0,172.0,301.5,178.5" stroke="black" stroke-width="1" fill="none" />
<polyline points="307.5,179.5,300.0,172.0,300.0,172.0,293.0,179.0" stroke="black" stroke-width="1" fill="none" />
<polyline points="299.5,179.5,292.0,172.0,292.0,172.0,279.5,184.5" stroke="black" stroke-width="1" fill="none" />
<polyline points="275.5,196.5,226.0,246.0,223.5,248.0,272.5,248.0" stroke="black" stroke-width="1" fill="none" />
<polyline points="270.0,290.0,226.0,334.0,223.5,336.0,272.5,336.0" stroke="black" stroke-width="1" fill="none" />
<polyline points="270.0,378.0,226.0,422.0,225.5,425.5,262.5,462.5,258.5,461.5,275.5,444.5,276.0,444.0,225.5,393.5,223.5,392.0,272.5,392.0" stroke="black" stroke-width="1" fill="none" />
<polyline points="270.0,418.0,226.5,461.5" stroke="black" stroke-width="1" fill="none" />
<polyline points="218.5,461.5,270.0,410.0" stroke="black" stroke-width="1" fill="none" />
<polyline points="270.5,425.5,234.5,461.5" stroke="black" stroke-width="1" fill="none" />
<polyline points="242.5,461.5,272.0,432.0" stroke="black" stroke-width="1" fill="none" />
<polyline points="275.5,436.5,250.5,461.5" stroke="black" stroke-width="1" fill="none" />
<polyline points="266.5,461.5,279.0,449.0,280.0,447.5,280.0,463.0,282.5,461.5,289.5,454.5,288.0,453.0,288.0,463.5,290.5,461.5,297.5,454.5,296.0,454.0,296.0,463.0,298.5,461.5,305.0,455.0,304.0,454.0,304.0,463.0,306.5,461.5,312.5,455.5,312.0,454.0,312.0,463.0,310.5,462.5,303.0,455.0" stroke="black" stroke-width="1" fill="none" />
<polyline points="310.5,454.5,313.5,457.5" stroke="black" stroke-width="1" fill="none" />
<polyline points="302.5,462.5,295.0,455.0" stroke="black" stroke-width="1" fill="none" />
<polyline points="286.0,450.0,274.5,461.5,270.5,462.5,225.5,417.5,223.5,416.0,272.5,416.0" stroke="black" stroke-width="1" fill="none" />
<polyline points="270.5,422.5,225.5,377.5,223.5,376.0,272.5,376.0" stroke="black" stroke-width="1" fill="none" />
<polyline points="270.0,402.0,210.5,461.5" stroke="black" stroke-width="1" fill="none" />
<polyline points="209.5,454.5,202.5,461.5" stroke="black" stroke-width="1" fill="none" />
<polyline points="201.5,454.5,194.5,461.5" stroke="black" stroke-width="1" fill="none" />
<polyline points="193.0,455.0,186.5,461.5,190.5,462.5,184.5,456.5,184.0,455.0,184.0,463.0,183.0,464.0,313.5,464.0" stroke="black" stroke-width="1" fill="none" />
<polyline points="278.5,462.5,225.5,409.5,223.5,408.0,272.5,408.0" stroke="black" stroke-width="1" fill="none" />
<polyline points="270.0,394.0,226.0,438.0,225.0,441.0,246.5,462.5" stroke="black" stroke-width="1" fill="none" />
<polyline points="222.5,462.5,213.0,453.0,213.0,448.0,288.5,448.0" stroke="black" stroke-width="1" fill="none" />
<polyline points="281.0,449.0,294.5,462.5" stroke="black" stroke-width="1" fill="none" />
<polyline points="254.5,462.5,225.5,433.5,223.0,432.0,278.5,432.0,276.5,436.5,225.5,385.5,223.5,384.0,272.5,384.0,270.0,386.0,226.0,430.0" stroke="black" stroke-width="1" fill="none" />
<polyline points="223.0,424.0,274.5,424.0,272.0,425.5,272.0,463.5" stroke="black" stroke-width="1" fill="none" />
<polyline points="230.5,462.5,217.0,449.0,216.0,448.5,216.0,463.0" stroke="black" stroke-width="1" fill="none" />
<polyline points="206.5,462.5,198.5,454.5,200.0,453.5,200.0,463.5,198.5,462.5,191.0,455.0,192.0,454.0,192.0,463.0" stroke="black" stroke-width="1" fill="none" />
<polyline points="180.5,456.0,315.0,456.0" stroke="black" stroke-width="1" fill="none" />
<polyline points="238.5,462.5,220.5,444.5,224.0,441.0,224.0,463.5" stroke="black" stroke-width="1" fill="none" />
<polyline points="214.5,462.5,207.0,455.0,208.0,454.0,208.0,463.0" stroke="black" stroke-width="1" fill="none" />
<polyline points="232.0,463.5,232.0,171.5,228.0,172.0,270.5,214.5" stroke="black" stroke-width="1" fill="none" />
<polyline points="270.0,250.0,226.0,294.0,223.5,296.0,272.5,296.0" stroke="black" stroke-width="1" fill="none" />
<polyline points="270.0,338.0,226.0,382.0" stroke="black" stroke-width="1" fill="none" />
<polyline points="226.0,374.0,270.0,330.0" stroke="black" stroke-width="1" fill="none" />
<polyline points="270.0,370.0,226.0,414.0" stroke="black" stroke-width="1" fill="none" />
<polyline points="226.0,406.0,270.0,362.0" stroke="black" stroke-width="1" fill="none" />
<polyline points="270.0,354.0,226.0,398.0,223.5,400.0,272.5,400.0" stroke="black" stroke-width="1" fill="none" />
<polyline points="225.5,401.5,286.5,462.5" stroke="black" stroke-width="1" fill="none" />
<polyline points="270.5,414.5,225.5,369.5,223.5,368.0,272.5,368.0" stroke="black" stroke-width="1" fill="none" />
<polyline points="270.0,346.0,226.0,390.0" stroke="black" stroke-width="1" fill="none" />
<polyline points="226.0,366.0,270.0,322.0" stroke="black" stroke-width="1" fill="none" />
<polyline points="270.0,314.0,226.0,358.0,223.5,360.0,272.5,360.0" stroke="black" stroke-width="1" fill="none" />
<polyline points="270.5,406.5,225.5,361.5" stroke="black" stroke-width="1" fill="none" />
<polyline points="225.5,353.5,270.5,398.5" stroke="black" stroke-width="1" fill="none" />
<polyline points="270.5,390.5,225.5,345.5,223.5,344.0,272.5,344.0" stroke="black" stroke-width="1" fill="none" />
<polyline points="270.0,306.0,226.0,350.0,223.5,352.0,272.5,352.0" stroke="black" stroke-width="1" fill="none" />
<polyline points="226.0,342.0,270.0,298.0" stroke="black" stroke-width="1" fill="none" />
<polyline points="270.0,282.0,226.0,326.0,223.5,328.0,272.5,328.0" stroke="black" stroke-width="1" fill="none" />
<polyline points="270.5,374.5,225.5,329.5" stroke="black" stroke-width="1" fill="none" />
<polyline points="225.5,321.5,270.5,366.5" stroke="black" stroke-width="1" fill="none" />
<polyline points="270.5,382.5,225.5,337.5" stroke="black" stroke-width="1" fill="none" />
<polyline points="223.5,320.0,272.5,320.0" stroke="black" stroke-width="1" fill="none" />
<polyline points="270.0,274.0,226.0,318.0,225.5,313.5,270.5,358.5" stroke="black" stroke-width="1" fill="none" />
<polyline points="226.0,310.0,270.0,266.0" stroke="black" stroke-width="1" fill="none" />
<polyline points="270.0,258.0,226.0,302.0,223.5,304.0,272.5,304.0" stroke="black" stroke-width="1" fill="none" />
<polyline points="270.5,262.5,225.5,217.5,223.5,216.0,272.5,216.0" stroke="black" stroke-width="1" fill="none" />
<polyline points="270.0,242.0,226.0,286.0,223.5,288.0,272.5,288.0" stroke="black" stroke-width="1" fill="none" />
<polyline points="270.5,246.5,225.5,201.5,223.5,200.0,278.0,200.0" stroke="black" stroke-width="1" fill="none" />
<polyline points="270.0,226.0,226.0,270.0,223.5,272.0,272.5,272.0" stroke="black" stroke-width="1" fill="none" />
<polyline points="270.0,234.0,226.0,278.0,223.5,280.0,272.5,280.0" stroke="black" stroke-width="1" fill="none" />
<polyline points="270.5,238.5,225.0,193.0,225.0,191.0,244.0,172.0,244.0,172.0,274.0,202.0" stroke="black" stroke-width="1" fill="none" />
<polyline points="270.0,218.0,226.0,262.0,223.5,264.0,272.5,264.0" stroke="black" stroke-width="1" fill="none" />
<polyline points="270.5,222.5,220.0,172.0,220.0,172.0,211.5,180.5,208.0,181.5,208.0,171.5,204.0,172.0,217.5,185.5,216.0,184.0,228.0,172.0,224.0,171.5,224.0,194.0,226.0,198.0,252.0,172.0,252.0,172.0,276.0,196.0" stroke="black" stroke-width="1" fill="none" />
<polyline points="270.0,210.0,226.0,254.0,223.5,256.0,272.5,256.0" stroke="black" stroke-width="1" fill="none" />
<polyline points="270.5,230.5,212.0,172.0,212.0,172.0,205.0,179.0,203.5,179.5,196.0,172.0,196.0,172.0,189.5,178.5" stroke="black" stroke-width="1" fill="none" />
<polyline points="184.0,176.0,188.0,172.0,188.0,172.0,195.5,179.5,197.5,178.5,204.0,172.0,200.0,171.5,200.0,180.5" stroke="black" stroke-width="1" fill="none" />
<polyline points="192.0,180.5,192.0,171.5" stroke="black" stroke-width="1" fill="none" />
<polyline points="184.0,171.5,184.0,179.5,187.5,179.5,182.5,174.5" stroke="black" stroke-width="1" fill="none" />
<polyline points="208.0,184.0,288.5,184.0,291.5,179.5,284.0,172.0,284.0,172.0,226.0,230.0,225.5,233.5,270.5,278.5" stroke="black" stroke-width="1" fill="none" />
<polyline points="270.5,254.5,225.5,209.5,223.5,208.0,273.5,208.0" stroke="black" stroke-width="1" fill="none" />
<polyline points="276.0,188.0,226.0,238.0,225.5,241.5,270.5,286.5" stroke="black" stroke-width="1" fill="none" />
<polyline points="225.5,289.5,270.5,334.5" stroke="black" stroke-width="1" fill="none" />
<polyline points="270.5,350.5,225.5,305.5" stroke="black" stroke-width="1" fill="none" />
<polyline points="223.5,312.0,272.5,312.0" stroke="black" stroke-width="1" fill="none" />
<polyline points="270.5,342.5,225.5,297.5" stroke="black" stroke-width="1" fill="none" />
<polyline points="225.5,281.5,270.5,326.5" stroke="black" stroke-width="1" fill="none" />
<polyline points="270.5,318.5,225.5,273.5" stroke="black" stroke-width="1" fill="none" />
<polyline points="225.5,265.5,270.5,310.5" stroke="black" stroke-width="1" fill="none" />
<polyline points="270.5,302.5,225.5,257.5" stroke="black" stroke-width="1" fill="none" />
<polyline points="225.5,249.5,270.5,294.5" stroke="black" stroke-width="1" fill="none" />
<polyline points="270.5,270.5,226.0,226.0,223.5,224.0,272.5,224.0" stroke="black" stroke-width="1" fill="none" />
<polyline points="226.0,222.0,276.0,172.0,276.0,172.0,287.0,183.0" stroke="black" stroke-width="1" fill="none" />
<polyline points="281.5,185.5,268.0,172.0,268.0,172.0,226.0,214.0" stroke="black" stroke-width="1" fill="none" />
<polyline points="226.0,206.0,260.0,172.0,260.0,172.0,276.5,188.5" stroke="black" stroke-width="1" fill="none" />
<polyline points="288.0,181.5,288.0,171.5" stroke="black" stroke-width="1" fill="none" />
<polyline points="280.0,171.5,280.0,187.0" stroke="black" stroke-width="1" fill="none" />
<polyline points="296.0,181.0,296.0,171.5" stroke="black" stroke-width="1" fill="none" />
<polyline points="304.0,171.5,304.0,180.5" stroke="black" stroke-width="1" fill="none" />
<polyline points="312.0,180.5,312.0,171.5" stroke="black" stroke-width="1" fill="none" />
<polyline points="272.0,171.5,272.0,206.0,271.0,207.0,236.0,172.0,236.0,172.0,220.5,187.5,219.5,187.5,223.0,191.0,219.5,192.0,278.5,192.0" stroke="black" stroke-width="1" fill="none" />
<polyline points="264.0,171.5,264.0,463.0" stroke="black" stroke-width="1" fill="none" />
<polyline points="256.0,463.0,256.0,171.5" stroke="black" stroke-width="1" fill="none" />
<polyline points="248.0,171.5,248.0,463.0" stroke="black" stroke-width="1" fill="none" />
<polyline points="240.0,463.0,240.0,171.5" stroke="black" stroke-width="1" fill="none" />
<polyline points="216.0,171.5,216.0,186.0" stroke="black" stroke-width="1" fill="none" />
<polyline points="223.0,232.0,272.5,232.0" stroke="black" stroke-width="1" fill="none" />
<polyline points="272.5,240.0,223.0,240.0" stroke="black" stroke-width="1" fill="none" />
<polyline points="223.0,440.0,278.5,440.0" stroke="black" stroke-width="1" fill="none" />
</svg>